{
	"asset":{
		"generator":"Khronos glTF Blender I/O v3.5.30",
		"version":"2.0"
	},
	"extensionsUsed":[
		"KHR_materials_specular",
		"KHR_materials_ior"
	],
	"scene":0,
	"scenes":[
		{
			"name":"Scene",
			"nodes":[
				1
			]
		}
	],
	"nodes":[
		{
			"mesh":0,
			"name":"_1L0021__Convertido__ARD-node"
		},
		{
			"children":[
				0
			],
			"name":"DesignTransform1",
			"rotation":[
				0.7071068286895752,
				0,
				0,
				0.7071068286895752
			],
			"scale":[
				0.0010000000474974513,
				0.0010000000474974513,
				0.0010000000474974513
			],
			"translation":[
				0.4849812984466553,
				0,
				0.4835048317909241
			]
		}
	],
	"materials":[
		{
			"doubleSided":true,
			"extensions":{
				"KHR_materials_specular":{
					"specularColorFactor":[
						0,
						0,
						0
					]
				},
				"KHR_materials_ior":{
					"ior":0
				}
			},
			"name":"_1L0021__Convertido__ARD_front",
			"pbrMetallicRoughness":{
				"baseColorTexture":{
					"index":0
				},
				"metallicFactor":0,
				"roughnessFactor":0.5
			}
		},
		{
			"doubleSided":true,
			"extensions":{
				"KHR_materials_specular":{
					"specularColorFactor":[
						0,
						0,
						0
					]
				},
				"KHR_materials_ior":{
					"ior":0
				}
			},
			"name":"back-dil",
			"pbrMetallicRoughness":{
				"baseColorFactor":[
					0.7467700242996216,
					0.5472508072853088,
					0.28752878308296204,
					1
				],
				"metallicFactor":0
			}
		},
		{
			"doubleSided":true,
			"extensions":{
				"KHR_materials_specular":{
					"specularColorFactor":[
						0,
						0,
						0
					]
				},
				"KHR_materials_ior":{
					"ior":0
				}
			},
			"name":"_1L0021__Convertido__ARD_edge",
			"pbrMetallicRoughness":{
				"baseColorTexture":{
					"index":1
				},
				"metallicFactor":0,
				"roughnessFactor":0.5
			}
		}
	],
	"meshes":[
		{
			"name":"_1L0021__Convertido__ARD-geom",
			"primitives":[
				{
					"attributes":{
						"POSITION":0,
						"TEXCOORD_0":1,
						"NORMAL":2
					},
					"indices":3,
					"material":0
				},
				{
					"attributes":{
						"POSITION":4,
						"TEXCOORD_0":5,
						"NORMAL":6
					},
					"indices":7,
					"material":1
				},
				{
					"attributes":{
						"POSITION":8,
						"TEXCOORD_0":9,
						"NORMAL":10
					},
					"indices":11,
					"material":2
				}
			]
		}
	],
	"textures":[
		{
			"sampler":0,
			"source":0
		},
		{
			"sampler":0,
			"source":1
		}
	],
	"images":[
		{
			"bufferView":4,
			"mimeType":"image/jpeg",
			"name":"2"
		},
		{
			"bufferView":13,
			"mimeType":"image/png",
			"name":"_1L0021__Convertido__ARD-I1"
		}
	],
	"accessors":[
		{
			"bufferView":0,
			"componentType":5126,
			"count":592,
			"max":[
				-333.4808349609375,
				-211.20455932617188,
				2.000257968902588
			],
			"min":[
				-636.4957275390625,
				-755.80517578125,
				-95.84283447265625
			],
			"type":"VEC3"
		},
		{
			"bufferView":1,
			"componentType":5126,
			"count":592,
			"type":"VEC2"
		},
		{
			"bufferView":2,
			"componentType":5126,
			"count":592,
			"type":"VEC3"
		},
		{
			"bufferView":3,
			"componentType":5123,
			"count":1602,
			"type":"SCALAR"
		},
		{
			"bufferView":5,
			"componentType":5126,
			"count":530,
			"max":[
				-333.4808349609375,
				-212.21363830566406,
				2.0002570152282715
			],
			"min":[
				-636.4957275390625,
				-754.7966918945312,
				-95.01025390625
			],
			"type":"VEC3"
		},
		{
			"bufferView":6,
			"componentType":5126,
			"count":530,
			"type":"VEC2"
		},
		{
			"bufferView":7,
			"componentType":5126,
			"count":530,
			"type":"VEC3"
		},
		{
			"bufferView":8,
			"componentType":5123,
			"count":1602,
			"type":"SCALAR"
		},
		{
			"bufferView":9,
			"componentType":5126,
			"count":1308,
			"max":[
				-333.4808349609375,
				-211.20455932617188,
				2.000257968902588
			],
			"min":[
				-636.4957275390625,
				-755.80517578125,
				-95.84283447265625
			],
			"type":"VEC3"
		},
		{
			"bufferView":10,
			"componentType":5126,
			"count":1308,
			"type":"VEC2"
		},
		{
			"bufferView":11,
			"componentType":5126,
			"count":1308,
			"type":"VEC3"
		},
		{
			"bufferView":12,
			"componentType":5123,
			"count":2304,
			"type":"SCALAR"
		}
	],
	"bufferViews":[
		{
			"buffer":0,
			"byteLength":7104,
			"byteOffset":0,
			"target":34962
		},
		{
			"buffer":0,
			"byteLength":4736,
			"byteOffset":7104,
			"target":34962
		},
		{
			"buffer":0,
			"byteLength":7104,
			"byteOffset":11840,
			"target":34962
		},
		{
			"buffer":0,
			"byteLength":3204,
			"byteOffset":18944,
			"target":34963
		},
		{
			"buffer":0,
			"byteLength":316888,
			"byteOffset":22148
		},
		{
			"buffer":0,
			"byteLength":6360,
			"byteOffset":339036,
			"target":34962
		},
		{
			"buffer":0,
			"byteLength":4240,
			"byteOffset":345396,
			"target":34962
		},
		{
			"buffer":0,
			"byteLength":6360,
			"byteOffset":349636,
			"target":34962
		},
		{
			"buffer":0,
			"byteLength":3204,
			"byteOffset":355996,
			"target":34963
		},
		{
			"buffer":0,
			"byteLength":15696,
			"byteOffset":359200,
			"target":34962
		},
		{
			"buffer":0,
			"byteLength":10464,
			"byteOffset":374896,
			"target":34962
		},
		{
			"buffer":0,
			"byteLength":15696,
			"byteOffset":385360,
			"target":34962
		},
		{
			"buffer":0,
			"byteLength":4608,
			"byteOffset":401056,
			"target":34963
		},
		{
			"buffer":0,
			"byteLength":767,
			"byteOffset":405664
		}
	],
	"samplers":[
		{
			"magFilter":9729,
			"minFilter":9987
		}
	],
	"buffers":[
		{
			"byteLength":406432,
			"uri":"data:application/octet-stream;base64,"
		}
	]
}
